<svg viewBox="0 0 45 44" xmlns="http://www.w3.org/2000/svg" xmlns:xlink="http://www.w3.org/1999/xlink" width="45.000000" height="44.000000" fill="none" clip-path="url(#clipPath_0)" customFrame="url(#clipPath_0)">
	<defs>
		<clipPath id="clipPath_0">
			<rect width="45.000000" height="44.000000" x="0.000000" y="0.000000" rx="10.000000" fill="rgb(255,255,255)" />
		</clipPath>
	</defs>
	<rect id="ph:file-html-thin" width="45.000000" height="44.000000" x="0.000000" y="0.000000" rx="10.000000" fill="rgb(27,255,7)" />
	<path id="Vector" d="M21.6154 29.0771C21.6154 29.1995 21.5668 29.3169 21.4802 29.4035C21.3936 29.4901 21.2763 29.5387 21.1538 29.5387L19.7692 29.5387L19.7692 33.6925C19.7692 33.8149 19.7206 33.9323 19.6341 34.0189C19.5475 34.1054 19.4301 34.1541 19.3077 34.1541C19.1853 34.1541 19.0679 34.1054 18.9813 34.0189C18.8948 33.9323 18.8462 33.8149 18.8462 33.6925L18.8462 29.5387L17.4615 29.5387C17.3391 29.5387 17.2217 29.4901 17.1352 29.4035C17.0486 29.3169 17 29.1995 17 29.0771C17 28.9547 17.0486 28.8373 17.1352 28.7508C17.2217 28.6642 17.3391 28.6156 17.4615 28.6156L21.1538 28.6156C21.2763 28.6156 21.3936 28.6642 21.4802 28.7508C21.5668 28.8373 21.6154 28.9547 21.6154 29.0771ZM14.6923 28.6156C14.5699 28.6156 14.4525 28.6642 14.366 28.7508C14.2794 28.8373 14.2308 28.9547 14.2308 29.0771L14.2308 30.9233L11.9231 30.9233L11.9231 29.0771C11.9231 28.9547 11.8745 28.8373 11.7879 28.7508C11.7013 28.6642 11.5839 28.6156 11.4615 28.6156C11.3391 28.6156 11.2217 28.6642 11.1352 28.7508C11.0486 28.8373 11 28.9547 11 29.0771L11 33.6925C11 33.8149 11.0486 33.9323 11.1352 34.0189C11.2217 34.1054 11.3391 34.1541 11.4615 34.1541C11.5839 34.1541 11.7013 34.1054 11.7879 34.0189C11.8745 33.9323 11.9231 33.8149 11.9231 33.6925L11.9231 31.8464L14.2308 31.8464L14.2308 33.6925C14.2308 33.8149 14.2794 33.9323 14.366 34.0189C14.4525 34.1054 14.5699 34.1541 14.6923 34.1541C14.8147 34.1541 14.9321 34.1054 15.0187 34.0189C15.1052 33.9323 15.1538 33.8149 15.1538 33.6925L15.1538 29.0771C15.1538 28.9547 15.1052 28.8373 15.0187 28.7508C14.9321 28.6642 14.8147 28.6156 14.6923 28.6156ZM34.5385 33.231L32.2308 33.231L32.2308 29.0771C32.2308 28.9547 32.1821 28.8373 32.0956 28.7508C32.009 28.6642 31.8916 28.6156 31.7692 28.6156C31.6468 28.6156 31.5294 28.6642 31.4429 28.7508C31.3563 28.8373 31.3077 28.9547 31.3077 29.0771L31.3077 33.6925C31.3077 33.8149 31.3563 33.9323 31.4429 34.0189C31.5294 34.1054 31.6468 34.1541 31.7692 34.1541L34.5385 34.1541C34.6609 34.1541 34.7783 34.1054 34.8648 34.0189C34.9514 33.9323 35 33.8149 35 33.6925C35 33.5701 34.9514 33.4527 34.8648 33.3662C34.7783 33.2796 34.6609 33.231 34.5385 33.231ZM28.6769 28.6387C28.583 28.6118 28.4832 28.614 28.3905 28.6449C28.2979 28.6758 28.2167 28.7339 28.1577 28.8118L26.2308 31.5118L24.3038 28.8118C24.2448 28.7339 24.1637 28.6758 24.071 28.6449C23.9783 28.614 23.8785 28.6118 23.7846 28.6387C23.6912 28.668 23.6096 28.7264 23.5515 28.8052C23.4934 28.884 23.4619 28.9792 23.4615 29.0771L23.4615 33.6925C23.4615 33.8149 23.5102 33.9323 23.5967 34.0189C23.6833 34.1054 23.8007 34.1541 23.9231 34.1541C24.0455 34.1541 24.1629 34.1054 24.2494 34.0189C24.336 33.9323 24.3846 33.8149 24.3846 33.6925L24.3846 30.5194L25.85 32.5733C25.894 32.6329 25.9513 32.6814 26.0175 32.7148C26.0836 32.7482 26.1567 32.7656 26.2308 32.7656C26.3049 32.7656 26.3779 32.7482 26.4441 32.7148C26.5102 32.6814 26.5676 32.6329 26.6115 32.5733L28.0769 30.5194L28.0769 33.6925C28.0769 33.8149 28.1255 33.9323 28.2121 34.0189C28.2987 34.1054 28.4161 34.1541 28.5385 34.1541C28.6609 34.1541 28.7783 34.1054 28.8648 34.0189C28.9514 33.9323 29 33.8149 29 33.6925L29 29.0771C28.9996 28.9792 28.9681 28.884 28.91 28.8052C28.852 28.7264 28.7703 28.668 28.6769 28.6387ZM31.3077 24.9233C31.1853 24.9233 31.0679 24.8747 30.9813 24.7881C30.8948 24.7016 30.8462 24.5842 30.8462 24.4618L30.8462 19.3848L24.8462 19.3848C24.7237 19.3848 24.6064 19.3362 24.5198 19.2496C24.4332 19.1631 24.3846 19.0457 24.3846 18.9233L24.3846 12.9233L13.7692 12.9233C13.6468 12.9233 13.5294 12.9719 13.4429 13.0585C13.3563 13.145 13.3077 13.2624 13.3077 13.3848L13.3077 24.4618C13.3077 24.5842 13.2591 24.7016 13.1725 24.7881C13.086 24.8747 12.9686 24.9233 12.8462 24.9233C12.7237 24.9233 12.6064 24.8747 12.5198 24.7881C12.4332 24.7016 12.3846 24.5842 12.3846 24.4618L12.3846 13.3848C12.3846 13.0176 12.5305 12.6654 12.7902 12.4058C13.0498 12.1461 13.402 12.0002 13.7692 12.0002L24.8462 12.0002C24.9069 11.9983 24.9672 12.0097 25.0231 12.0336C25.0789 12.0575 25.1288 12.0934 25.1692 12.1387L31.6308 18.5887C31.7156 18.68 31.7647 18.7987 31.7692 18.9233L31.7692 24.4618C31.7692 24.5842 31.7206 24.7016 31.634 24.7881C31.5475 24.8747 31.4301 24.9233 31.3077 24.9233ZM25.3077 18.4618L30.1885 18.4618L25.3077 13.581L25.3077 18.4618Z" fill="rgb(255,255,255)" fill-rule="nonzero" />
	<path id="Vector" d="M30.6946 24.7157C30.7269 24.7937 30.7753 24.8649 30.8399 24.9295C30.9045 24.9941 30.9758 25.0426 31.0537 25.0749C31.1317 25.1071 31.2164 25.1233 31.3077 25.1233C31.399 25.1233 31.4837 25.1071 31.5616 25.0749C31.6396 25.0426 31.7109 24.9941 31.7755 24.9295C31.8401 24.8649 31.8885 24.7937 31.9208 24.7157C31.9531 24.6377 31.9692 24.5531 31.9692 24.4618L31.9692 18.9197L31.9691 18.9161C31.9659 18.8269 31.9483 18.7437 31.9163 18.6665C31.8843 18.5892 31.838 18.5179 31.7773 18.4526L31.7747 18.4498L25.3142 12.0008C25.285 11.9687 25.2532 11.9403 25.2188 11.9156C25.1827 11.8896 25.1437 11.8677 25.1018 11.8498C25.06 11.8318 25.0172 11.8187 24.9736 11.8105C24.931 11.8025 24.8876 11.799 24.8433 11.8002L13.7692 11.8002C13.6642 11.8002 13.5611 11.8103 13.46 11.8304C13.359 11.8505 13.2599 11.8806 13.1628 11.9208C13.0658 11.961 12.9744 12.0098 12.8887 12.067C12.803 12.1243 12.723 12.19 12.6487 12.2643C12.5744 12.3386 12.5087 12.4186 12.4514 12.5043C12.3942 12.59 12.3454 12.6814 12.3052 12.7784C12.265 12.8755 12.2349 12.9746 12.2148 13.0756C12.1947 13.1767 12.1846 13.2798 12.1846 13.3848L12.1846 24.4618C12.1846 24.5531 12.2008 24.6377 12.2331 24.7157C12.2653 24.7937 12.3138 24.8649 12.3784 24.9295C12.443 24.9941 12.5142 25.0426 12.5922 25.0748C12.6702 25.1071 12.7548 25.1233 12.8462 25.1233C12.9375 25.1233 13.0221 25.1071 13.1001 25.0748C13.1781 25.0426 13.2493 24.9941 13.3139 24.9295C13.3785 24.8649 13.427 24.7937 13.4593 24.7157C13.4915 24.6377 13.5077 24.5531 13.5077 24.4618L13.5077 13.3848C13.5077 13.3487 13.5141 13.3152 13.5268 13.2844C13.5396 13.2536 13.5588 13.2254 13.5843 13.1999C13.6098 13.1744 13.638 13.1552 13.6688 13.1424C13.6997 13.1297 13.7331 13.1233 13.7692 13.1233L24.1846 13.1233L24.1846 18.9233C24.1846 19.0146 24.2008 19.0993 24.2331 19.1772C24.2654 19.2552 24.3138 19.3265 24.3784 19.3911C24.443 19.4557 24.5142 19.5041 24.5922 19.5364C24.6702 19.5687 24.7548 19.5848 24.8462 19.5848L30.6462 19.5848L30.6462 24.4618C30.6462 24.5531 30.6623 24.6377 30.6946 24.7157ZM30.6462 19.3848L30.8462 19.3848L30.8462 24.4618C30.8462 24.5842 30.8948 24.7016 30.9813 24.7881C31.0679 24.8747 31.1853 24.9233 31.3077 24.9233C31.4301 24.9233 31.5475 24.8747 31.634 24.7881C31.7206 24.7016 31.7692 24.5842 31.7692 24.4618L31.7692 18.9233C31.7647 18.7987 31.7156 18.68 31.6308 18.5887L25.1692 12.1387C25.1288 12.0934 25.0789 12.0575 25.0231 12.0336C24.9672 12.0097 24.9069 11.9983 24.8462 12.0002L13.7692 12.0002C13.402 12.0002 13.0498 12.1461 12.7902 12.4058C12.5305 12.6654 12.3846 13.0176 12.3846 13.3848L12.3846 24.4618C12.3846 24.5842 12.4332 24.7016 12.5198 24.7881C12.6064 24.8747 12.7237 24.9233 12.8462 24.9233C12.9686 24.9233 13.086 24.8747 13.1725 24.7881C13.2591 24.7016 13.3077 24.5842 13.3077 24.4618L13.3077 13.3848C13.3077 13.2624 13.3563 13.145 13.4429 13.0585C13.5294 12.9719 13.6468 12.9233 13.7692 12.9233L24.3846 12.9233L24.3846 18.9233C24.3846 19.0457 24.4332 19.1631 24.5198 19.2496C24.6064 19.3362 24.7237 19.3848 24.8462 19.3848L30.6462 19.3848ZM30.1885 18.4618L25.3077 18.4618L25.3077 13.581L29.9885 18.2618L30.1885 18.4618ZM25.5077 14.0638L29.7056 18.2618L25.5077 18.2618L25.5077 14.0638ZM14.4384 28.464C14.3604 28.4963 14.2891 28.5448 14.2245 28.6094C14.1599 28.674 14.1115 28.7452 14.0792 28.8232C14.0469 28.9012 14.0308 28.9858 14.0308 29.0771L14.0308 30.7233L12.1231 30.7233L12.1231 29.0771C12.1231 28.9858 12.1069 28.9011 12.0746 28.8232C12.0423 28.7452 11.9939 28.6739 11.9293 28.6094C11.8647 28.5448 11.7935 28.4963 11.7155 28.464C11.6375 28.4317 11.5529 28.4156 11.4615 28.4156C11.3702 28.4156 11.2856 28.4317 11.2076 28.464C11.1296 28.4963 11.0583 28.5448 10.9938 28.6094C10.9292 28.674 10.8807 28.7452 10.8484 28.8232C10.8161 28.9012 10.8 28.9858 10.8 29.0771L10.8 33.6925C10.8 33.7839 10.8161 33.8685 10.8484 33.9465C10.8807 34.0244 10.9292 34.0957 10.9938 34.1603C11.0583 34.2249 11.1296 34.2733 11.2076 34.3056C11.2855 34.3379 11.3702 34.3541 11.4615 34.3541C11.5529 34.3541 11.6375 34.3379 11.7155 34.3056C11.7935 34.2733 11.8647 34.2249 11.9293 34.1603C11.9939 34.0957 12.0423 34.0244 12.0746 33.9465C12.1069 33.8685 12.1231 33.7839 12.1231 33.6925L12.1231 32.0464L14.0308 32.0464L14.0308 33.6925C14.0308 33.7839 14.0469 33.8685 14.0792 33.9465C14.1115 34.0244 14.1599 34.0957 14.2245 34.1603C14.2891 34.2249 14.3604 34.2733 14.4383 34.3056C14.5163 34.3379 14.601 34.3541 14.6923 34.3541C14.7837 34.3541 14.8683 34.3379 14.9463 34.3056C15.0242 34.2733 15.0955 34.2249 15.1601 34.1603C15.2247 34.0957 15.2731 34.0245 15.3054 33.9465C15.3377 33.8685 15.3538 33.7839 15.3538 33.6925L15.3538 29.0771C15.3538 28.9858 15.3377 28.9011 15.3054 28.8232C15.2731 28.7452 15.2247 28.6739 15.1601 28.6094C15.0955 28.5448 15.0242 28.4963 14.9463 28.464C14.8683 28.4317 14.7836 28.4156 14.6923 28.4156C14.601 28.4156 14.5163 28.4317 14.4384 28.464ZM14.2308 32.0464L14.2308 33.6925C14.2308 33.8149 14.2794 33.9323 14.366 34.0189C14.4525 34.1054 14.5699 34.1541 14.6923 34.1541C14.8147 34.1541 14.9321 34.1054 15.0187 34.0189C15.1052 33.9323 15.1538 33.8149 15.1538 33.6925L15.1538 29.0771C15.1538 28.9547 15.1052 28.8373 15.0187 28.7508C14.9321 28.6642 14.8147 28.6156 14.6923 28.6156C14.5699 28.6156 14.4525 28.6642 14.366 28.7508C14.2794 28.8373 14.2308 28.9547 14.2308 29.0771L14.2308 30.9233L11.9231 30.9233L11.9231 29.0771C11.9231 28.9547 11.8745 28.8373 11.7879 28.7508C11.7013 28.6642 11.5839 28.6156 11.4615 28.6156C11.3391 28.6156 11.2217 28.6642 11.1352 28.7508C11.0486 28.8373 11 28.9547 11 29.0771L11 33.6925C11 33.8149 11.0486 33.9323 11.1352 34.0189C11.2217 34.1054 11.3391 34.1541 11.4615 34.1541C11.5839 34.1541 11.7013 34.1054 11.7879 34.0189C11.8745 33.9323 11.9231 33.8149 11.9231 33.6925L11.9231 31.8464L14.2308 31.8464L14.2308 32.0464ZM21.4078 29.6902C21.4858 29.6579 21.557 29.6095 21.6216 29.5449C21.6862 29.4803 21.7347 29.4091 21.7669 29.3311C21.7992 29.2531 21.8154 29.1685 21.8154 29.0771C21.8154 28.9858 21.7992 28.9012 21.7669 28.8232C21.7347 28.7452 21.6862 28.6739 21.6216 28.6094C21.557 28.5448 21.4858 28.4963 21.4078 28.464C21.3298 28.4317 21.2452 28.4156 21.1538 28.4156L17.4615 28.4156C17.3702 28.4156 17.2855 28.4317 17.2076 28.464C17.1296 28.4963 17.0583 28.5448 16.9938 28.6094C16.9292 28.6739 16.8807 28.7452 16.8484 28.8232C16.8161 28.9011 16.8 28.9858 16.8 29.0771C16.8 29.1685 16.8161 29.2531 16.8484 29.3311C16.8807 29.4091 16.9292 29.4803 16.9938 29.5449C17.0583 29.6095 17.1296 29.6579 17.2076 29.6902C17.2855 29.7225 17.3702 29.7387 17.4615 29.7387L18.6462 29.7387L18.6462 33.6925C18.6462 33.7839 18.6623 33.8685 18.6946 33.9465C18.7269 34.0244 18.7753 34.0957 18.8399 34.1603C18.9045 34.2249 18.9758 34.2733 19.0537 34.3056C19.1317 34.3379 19.2163 34.3541 19.3077 34.3541C19.399 34.3541 19.4837 34.3379 19.5617 34.3056C19.6396 34.2733 19.7109 34.2249 19.7755 34.1603C19.8401 34.0957 19.8885 34.0244 19.9208 33.9465C19.9531 33.8685 19.9692 33.7839 19.9692 33.6925L19.9692 29.7387L21.1538 29.7387C21.2452 29.7387 21.3299 29.7225 21.4078 29.6902ZM19.9692 29.5387L21.1538 29.5387C21.2763 29.5387 21.3936 29.4901 21.4802 29.4035C21.5668 29.3169 21.6154 29.1995 21.6154 29.0771C21.6154 28.9547 21.5668 28.8373 21.4802 28.7508C21.3936 28.6642 21.2763 28.6156 21.1538 28.6156L17.4615 28.6156C17.3391 28.6156 17.2217 28.6642 17.1352 28.7508C17.0486 28.8373 17 28.9547 17 29.0771C17 29.1995 17.0486 29.3169 17.1352 29.4035C17.2217 29.4901 17.3391 29.5387 17.4615 29.5387L18.8462 29.5387L18.8462 33.6925C18.8462 33.8149 18.8948 33.9323 18.9813 34.0189C19.0679 34.1054 19.1853 34.1541 19.3077 34.1541C19.4301 34.1541 19.5475 34.1054 19.6341 34.0189C19.7206 33.9323 19.7692 33.8149 19.7692 33.6925L19.7692 29.5387L19.9692 29.5387ZM32.2308 33.231L34.5385 33.231C34.6609 33.231 34.7783 33.2796 34.8648 33.3662C34.9514 33.4527 35 33.5701 35 33.6925C35 33.8149 34.9514 33.9323 34.8648 34.0189C34.7783 34.1054 34.6609 34.1541 34.5385 34.1541L31.7692 34.1541C31.6468 34.1541 31.5294 34.1054 31.4429 34.0189C31.3563 33.9323 31.3077 33.8149 31.3077 33.6925L31.3077 29.0771C31.3077 28.9547 31.3563 28.8373 31.4429 28.7508C31.5294 28.6642 31.6468 28.6156 31.7692 28.6156C31.8916 28.6156 32.009 28.6642 32.0956 28.7508C32.1821 28.8373 32.2308 28.9547 32.2308 29.0771L32.2308 33.231ZM32.4308 33.031L34.5385 33.031C34.6298 33.031 34.7145 33.0471 34.7924 33.0794C34.8704 33.1117 34.9417 33.1602 35.0062 33.2247C35.0708 33.2893 35.1193 33.3606 35.1516 33.4386C35.1839 33.5165 35.2 33.6012 35.2 33.6925C35.2 33.7839 35.1839 33.8685 35.1516 33.9465C35.1193 34.0244 35.0708 34.0957 35.0062 34.1603C34.9417 34.2249 34.8704 34.2733 34.7924 34.3056C34.7145 34.3379 34.6298 34.3541 34.5385 34.3541L31.7692 34.3541C31.6779 34.3541 31.5932 34.3379 31.5153 34.3056C31.4373 34.2733 31.366 34.2249 31.3015 34.1603C31.2369 34.0957 31.1884 34.0244 31.1561 33.9465C31.1238 33.8685 31.1077 33.7839 31.1077 33.6925L31.1077 29.0771C31.1077 28.9858 31.1238 28.9011 31.1561 28.8232C31.1884 28.7452 31.2369 28.6739 31.3015 28.6094C31.366 28.5448 31.4373 28.4963 31.5153 28.464C31.5932 28.4317 31.6779 28.4156 31.7692 28.4156C31.8606 28.4156 31.9452 28.4317 32.0232 28.464C32.1012 28.4963 32.1724 28.5448 32.237 28.6094C32.3016 28.6739 32.35 28.7452 32.3823 28.8232C32.4146 28.9011 32.4308 28.9858 32.4308 29.0771L32.4308 33.031ZM28.5289 28.4195C28.4615 28.4209 28.3943 28.4328 28.3273 28.4552C28.2603 28.4775 28.1994 28.5083 28.1445 28.5476C28.0897 28.5869 28.041 28.6347 27.9984 28.6909L27.9966 28.6932L26.2308 31.1675L24.465 28.6932L24.4632 28.6909C24.4205 28.6346 24.3718 28.5869 24.317 28.5476C24.2622 28.5083 24.2013 28.4775 24.1343 28.4552C24.0673 28.4328 24.0001 28.4209 23.9326 28.4195C23.8652 28.418 23.7976 28.427 23.7297 28.4464L23.7271 28.4471L23.7246 28.4479C23.656 28.4695 23.5938 28.5002 23.5381 28.5399C23.4824 28.5797 23.4332 28.6286 23.3905 28.6865C23.3478 28.7445 23.3157 28.806 23.2942 28.8709C23.2727 28.9359 23.2618 29.0044 23.2615 29.0763L23.2615 33.6925C23.2615 33.7839 23.2777 33.8685 23.31 33.9465C23.3423 34.0244 23.3907 34.0957 23.4553 34.1603C23.5199 34.2249 23.5911 34.2733 23.6691 34.3056C23.7471 34.3379 23.8317 34.3541 23.9231 34.3541C24.0144 34.3541 24.0991 34.3379 24.1771 34.3056C24.255 34.2733 24.3263 34.2249 24.3909 34.1603C24.4554 34.0957 24.5039 34.0244 24.5362 33.9465C24.5685 33.8685 24.5846 33.7839 24.5846 33.6925L24.5846 31.1441L25.6872 32.6895C25.7253 32.7411 25.7687 32.786 25.8175 32.824C25.8515 32.8504 25.8881 32.8735 25.9273 32.8933C25.975 32.9174 26.0241 32.9355 26.0747 32.9475C26.1253 32.9596 26.1773 32.9656 26.2308 32.9656C26.2842 32.9656 26.3362 32.9596 26.3868 32.9475C26.4374 32.9355 26.4865 32.9174 26.5342 32.8933C26.582 32.8692 26.6257 32.8404 26.6654 32.8068C26.7051 32.7733 26.7408 32.735 26.7725 32.692L27.8769 31.1441L27.8769 33.6925C27.8769 33.7839 27.8931 33.8685 27.9254 33.9465C27.9577 34.0244 28.0061 34.0957 28.0707 34.1603C28.1353 34.2249 28.2065 34.2733 28.2845 34.3056C28.3625 34.3379 28.4471 34.3541 28.5385 34.3541C28.6298 34.3541 28.7145 34.3379 28.7924 34.3056C28.8704 34.2733 28.9417 34.2249 29.0062 34.1603C29.0708 34.0957 29.1193 34.0244 29.1516 33.9465C29.1839 33.8685 29.2 33.7839 29.2 33.6925L29.2 29.0771C29.1997 29.0035 29.1884 28.9336 29.1661 28.8674C29.1446 28.8037 29.1129 28.7434 29.071 28.6865C29.0283 28.6286 28.9791 28.5797 28.9234 28.5399C28.8678 28.5002 28.8056 28.4695 28.7369 28.4479L28.7344 28.4471L28.7319 28.4464C28.664 28.427 28.5963 28.418 28.5289 28.4195ZM27.8769 30.7998L28.0769 30.5194L28.0769 33.6925C28.0769 33.8149 28.1255 33.9323 28.2121 34.0189C28.2987 34.1054 28.4161 34.1541 28.5385 34.1541C28.6609 34.1541 28.7783 34.1054 28.8648 34.0189C28.9514 33.9323 29 33.8149 29 33.6925L29 29.0771C28.9996 28.9792 28.9681 28.884 28.91 28.8052C28.852 28.7264 28.7703 28.668 28.6769 28.6387C28.583 28.6118 28.4832 28.614 28.3905 28.6449C28.2979 28.6758 28.2167 28.7339 28.1577 28.8118L26.3536 31.3396L26.2308 31.5118L26.1079 31.3396L24.3038 28.8118C24.2448 28.7339 24.1637 28.6758 24.071 28.6449C23.9783 28.614 23.8785 28.6118 23.7846 28.6387C23.6912 28.668 23.6096 28.7264 23.5515 28.8052C23.4934 28.884 23.4619 28.9792 23.4615 29.0771L23.4615 33.6925C23.4615 33.8149 23.5102 33.9323 23.5967 34.0189C23.6833 34.1054 23.8007 34.1541 23.9231 34.1541C24.0455 34.1541 24.1629 34.1054 24.2494 34.0189C24.336 33.9323 24.3846 33.8149 24.3846 33.6925L24.3846 30.5194L24.5846 30.7998L25.85 32.5733C25.894 32.6329 25.9513 32.6814 26.0175 32.7148C26.0836 32.7482 26.1567 32.7656 26.2308 32.7656C26.3049 32.7656 26.3779 32.7482 26.4441 32.7148C26.5102 32.6814 26.5676 32.6329 26.6115 32.5733L27.8769 30.7998Z" fill="rgb(255,255,255)" fill-rule="evenodd" />
</svg>
