<svg viewBox="0 0 45 44" xmlns="http://www.w3.org/2000/svg" xmlns:xlink="http://www.w3.org/1999/xlink" width="45.000000" height="44.000000" fill="none" clip-path="url(#clipPath_2)" customFrame="url(#clipPath_2)">
	<defs>
		<clipPath id="clipPath_2">
			<rect width="45.000000" height="44.000000" x="0.000000" y="0.000000" rx="10.000000" fill="rgb(255,255,255)" />
		</clipPath>
	</defs>
	<rect id="ph:file-html-thin" width="45.000000" height="44.000000" x="0.000000" y="0.000000" rx="10.000000" fill="rgb(27,255,7)" />
	<path id="Vector" d="M27.8539 9L16.3886 9C15.7561 9.00314 15.1503 9.2558 14.7031 9.70307C14.2558 10.1503 14.0031 10.7561 14 11.3886L14 32.4083C14.0031 33.0408 14.2558 33.6465 14.7031 34.0938C15.1503 34.5411 15.7561 34.7937 16.3886 34.7969L27.8539 34.7969C28.4864 34.7937 29.0921 34.5411 29.5394 34.0938C29.9867 33.6465 30.2393 33.0408 30.2425 32.4083L30.2425 11.3886C30.2393 10.7561 29.9867 10.1503 29.5394 9.70307C29.0921 9.2558 28.4864 9.00314 27.8539 9ZM14.9554 13.7772L29.287 13.7772L29.287 30.0197L14.9554 30.0197L14.9554 13.7772ZM16.3886 9.95544L27.8539 9.95544C28.234 9.95544 28.5985 10.1064 28.8673 10.3752C29.136 10.644 29.287 11.0085 29.287 11.3886L29.287 12.8218L14.9554 12.8218L14.9554 11.3886C14.9554 11.0085 15.1064 10.644 15.3752 10.3752C15.644 10.1064 16.0085 9.95544 16.3886 9.95544ZM27.8539 33.8414L16.3886 33.8414C16.0085 33.8414 15.644 33.6904 15.3752 33.4217C15.1064 33.1529 14.9554 32.7884 14.9554 32.4083L14.9554 30.9751L29.287 30.9751L29.287 32.4083C29.287 32.7884 29.136 33.1529 28.8673 33.4217C28.5985 33.6904 28.234 33.8414 27.8539 33.8414Z" fill="rgb(255,255,255)" fill-rule="nonzero" />
	<path id="Vector" d="M27.8549 8.8L16.3886 8.8L16.3876 8.8C16.2163 8.80085 16.0483 8.81798 15.8836 8.85138C15.7189 8.88478 15.5575 8.93445 15.3994 9.0004C15.2413 9.06635 15.0924 9.14609 14.9528 9.23963C14.8132 9.33317 14.6828 9.44051 14.5617 9.56165C14.4405 9.68279 14.3332 9.81316 14.2396 9.95278C14.1461 10.0924 14.0664 10.2413 14.0004 10.3994C13.9345 10.5575 13.8848 10.7189 13.8514 10.8836C13.818 11.0483 13.8009 11.2163 13.8 11.3876L13.8 32.4083C13.8009 32.5843 13.8189 32.7568 13.854 32.9258C13.8873 33.0862 13.9362 33.2435 14.0004 33.3975C14.0663 33.5555 14.146 33.7043 14.2395 33.8439C14.3331 33.9836 14.4405 34.114 14.5617 34.2352C14.6827 34.3563 14.8131 34.4636 14.9526 34.5571C15.0923 34.6507 15.2412 34.7305 15.3994 34.7965C15.5575 34.8624 15.7189 34.9121 15.8836 34.9455C16.0483 34.9789 16.2163 34.996 16.3876 34.9969L27.8539 34.9969C28.0299 34.996 28.2024 34.978 28.3713 34.9429C28.5318 34.9095 28.6891 34.8607 28.8431 34.7965C29.0013 34.7305 29.1502 34.6507 29.2898 34.5572C29.4294 34.4636 29.5597 34.3563 29.6808 34.2352C29.802 34.1141 29.9093 33.9837 30.0028 33.8441C30.0964 33.7045 30.1761 33.5556 30.2421 33.3975C30.308 33.2394 30.3577 33.078 30.3911 32.9133C30.4245 32.7486 30.4416 32.5806 30.4425 32.4093L30.4425 11.3886C30.4416 11.2126 30.4236 11.0402 30.3885 10.8713C30.3552 10.7108 30.3064 10.5535 30.2421 10.3994C30.1762 10.2413 30.0964 10.0925 30.0029 9.95294C29.9094 9.81326 29.802 9.68283 29.6808 9.56165C29.5597 9.4405 29.4293 9.33315 29.2896 9.2396C29.15 9.14608 29.0012 9.06634 28.8431 9.0004C28.685 8.93445 28.5236 8.88478 28.3589 8.85138C28.1942 8.81798 28.0262 8.80085 27.8549 8.8ZM16.3886 9L27.8539 9C28.4864 9.00314 29.0921 9.2558 29.5394 9.70307C29.9867 10.1503 30.2393 10.7561 30.2425 11.3886L30.2425 32.4083C30.2393 33.0408 29.9867 33.6465 29.5394 34.0938C29.0921 34.5411 28.4864 34.7937 27.8539 34.7969L16.3886 34.7969C15.7561 34.7937 15.1503 34.5411 14.7031 34.0938C14.2558 33.6465 14.0031 33.0408 14 32.4083L14 11.3886C14.0031 10.7561 14.2558 10.1503 14.7031 9.70307C15.1503 9.2558 15.7561 9.00314 16.3886 9ZM27.8539 9.95544L16.3886 9.95544C16.0085 9.95544 15.644 10.1064 15.3752 10.3752C15.1064 10.644 14.9554 11.0085 14.9554 11.3886L14.9554 12.8218L29.287 12.8218L29.287 11.3886C29.287 11.0085 29.136 10.644 28.8673 10.3752C28.5985 10.1064 28.234 9.95544 27.8539 9.95544ZM29.087 12.6218L29.087 11.3886C29.087 11.3068 29.0792 11.2266 29.0636 11.148C29.0479 11.0693 29.0245 10.9922 28.9932 10.9167C28.9619 10.8411 28.924 10.77 28.8794 10.7034C28.8349 10.6367 28.7837 10.5744 28.7259 10.5166C28.668 10.4588 28.6058 10.4076 28.5391 10.3631C28.4724 10.3185 28.4013 10.2806 28.3258 10.2493C28.2502 10.218 28.1731 10.1945 28.0945 10.1789C28.0158 10.1633 27.9356 10.1554 27.8539 10.1554L16.3886 10.1554C16.3068 10.1554 16.2266 10.1633 16.148 10.1789C16.0693 10.1946 15.9922 10.218 15.9167 10.2493C15.8412 10.2806 15.77 10.3185 15.7034 10.3631C15.6367 10.4076 15.5744 10.4588 15.5166 10.5166C15.4588 10.5744 15.4076 10.6367 15.3631 10.7034C15.3185 10.77 15.2806 10.8412 15.2493 10.9167C15.218 10.9922 15.1946 11.0693 15.1789 11.148C15.1633 11.2266 15.1554 11.3068 15.1554 11.3886L15.1554 12.6218L29.087 12.6218ZM29.287 13.9772L29.287 13.7772L14.9554 13.7772L14.9554 30.0197L29.287 30.0197L29.287 13.9772ZM29.087 13.9772L29.087 29.8197L15.1554 29.8197L15.1554 13.9772L29.087 13.9772ZM27.8539 33.6414L16.3886 33.6414C16.3068 33.6414 16.2266 33.6336 16.148 33.618C16.0693 33.6023 15.9922 33.5789 15.9167 33.5476C15.8411 33.5163 15.77 33.4783 15.7033 33.4338C15.6367 33.3892 15.5744 33.3381 15.5166 33.2803C15.4588 33.2224 15.4076 33.1601 15.363 33.0934C15.3185 33.0268 15.2806 32.9557 15.2493 32.8802C15.218 32.8047 15.1946 32.7276 15.1789 32.6489C15.1633 32.5703 15.1554 32.4901 15.1554 32.4083L15.1554 31.1751L29.087 31.1751L29.087 32.4083C29.087 32.49 29.0792 32.5702 29.0636 32.6489C29.0479 32.7275 29.0245 32.8046 28.9932 32.8802C28.9619 32.9557 28.924 33.0268 28.8794 33.0935C28.8349 33.1602 28.7837 33.2224 28.7259 33.2803C28.668 33.3381 28.6058 33.3892 28.5391 33.4338C28.4725 33.4783 28.4013 33.5163 28.3258 33.5476C28.2502 33.5789 28.1731 33.6023 28.0945 33.618C28.0158 33.6336 27.9356 33.6414 27.8539 33.6414ZM29.287 31.1751L29.287 32.4083C29.287 32.7884 29.136 33.1529 28.8673 33.4217C28.5985 33.6904 28.234 33.8414 27.8539 33.8414L16.3886 33.8414C16.0085 33.8414 15.644 33.6904 15.3752 33.4217C15.1064 33.1529 14.9554 32.7884 14.9554 32.4083L14.9554 30.9751L29.287 30.9751L29.287 31.1751Z" fill="rgb(255,255,255)" fill-rule="evenodd" />
</svg>
